<svg xmlns="http://www.w3.org/2000/svg" viewBox="0 0 50 50"><path d="M12 3.046875L5 6.046875L5 6L3 6L3 44L5 44L12 47L14 47L14 44L19.886719 44L19.6875 42L14 42L14 8L26 8L26 9C26.703125 9 27.371094 9.125 28 9.351563L28 6L14 6L14 3.046875 Z M 36 8C34.347656 8 33 9.347656 33 11L33 19C33 20.652344 34.347656 22 36 22L44 22C45.652344 22 47 20.652344 47 19L47 11C47 9.347656 45.652344 8 44 8 Z M 26 11C23.792969 11 22 12.792969 22 15C22 17.207031 23.792969 19 26 19C28.207031 19 30 17.207031 30 15C30 12.792969 28.207031 11 26 11 Z M 39 12L41 12L41 14L43 14L43 16L41 16L41 18L39 18L39 16L37 16L37 14L39 14 Z M 26 20C22.140625 20 19 23.386719 19 27.546875L19 34.617188L21.0625 35.644531L22.09375 46L29.90625 46L30.9375 35.644531L33 34.617188L33 27.546875C33 23.386719 29.859375 20 26 20 Z M 10 25C10.550781 25 11 25.449219 11 26C11 26.550781 10.550781 27 10 27C9.449219 27 9 26.550781 9 26C9 25.449219 9.449219 25 10 25Z"/></svg>