<svg xmlns="http://www.w3.org/2000/svg" viewBox="0 0 26 26"><path d="M13 0C5.820313 0 0 5.820313 0 13C0 20.179688 5.820313 26 13 26C20.179688 26 26 20.179688 26 13C26 5.820313 20.179688 0 13 0 Z M 13 6C16.535156 6 18.398438 8.488281 18.875 10.96875L20.5625 10.25C20.367188 10 20.25 9.6875 20.25 9.34375C20.25 8.535156 20.910156 7.875 21.71875 7.875C22.527344 7.875 23.1875 8.535156 23.1875 9.34375C23.1875 9.832031 22.957031 10.265625 22.59375 10.53125C22.976563 10.761719 23.25 11.148438 23.25 11.625C23.25 12.351563 22.664063 12.9375 21.9375 12.9375C21.324219 12.9375 20.832031 12.503906 20.6875 11.9375L19.09375 12.625C19.054688 12.640625 19.007813 12.644531 18.96875 12.65625C18.808594 14.308594 17.667969 15.316406 16 15.8125C15.957031 18.324219 15.3125 19 13 19C10.6875 19 10.046875 18.324219 10 15.8125C8.332031 15.316406 7.191406 14.308594 7.03125 12.65625C6.992188 12.644531 6.945313 12.640625 6.90625 12.625L5.3125 11.9375C5.167969 12.503906 4.675781 12.9375 4.0625 12.9375C3.335938 12.9375 2.75 12.351563 2.75 11.625C2.75 11.144531 3.023438 10.761719 3.40625 10.53125C3.042969 10.265625 2.8125 9.832031 2.8125 9.34375C2.8125 8.535156 3.472656 7.875 4.28125 7.875C5.089844 7.875 5.75 8.535156 5.75 9.34375C5.75 9.6875 5.632813 10 5.4375 10.25L7.125 10.96875C7.601563 8.488281 9.464844 6 13 6 Z M 10.53125 9.375C10.015625 9.402344 9.503906 9.621094 9.1875 9.9375C8.554688 10.570313 8.914063 11.414063 9.65625 12.15625C10.398438 12.898438 11.242188 13.257813 11.875 12.625C12.507813 11.992188 12.679688 10.617188 11.9375 9.875C11.566406 9.503906 11.046875 9.347656 10.53125 9.375 Z M 15.09375 9.375C14.710938 9.421875 14.339844 9.597656 14.0625 9.875C13.320313 10.617188 13.492188 11.992188 14.125 12.625C14.757813 13.257813 15.601563 12.898438 16.34375 12.15625C17.085938 11.410156 17.445313 10.570313 16.8125 9.9375C16.417969 9.542969 15.734375 9.300781 15.09375 9.375 Z M 13 13.3125C12.558594 13.3125 12.1875 14.441406 12.1875 14.9375C12.1875 15.433594 12.558594 14.84375 13 14.84375C13.441406 14.84375 13.8125 15.433594 13.8125 14.9375C13.8125 14.441406 13.441406 13.3125 13 13.3125 Z M 7.3125 16C7.65625 16.476563 8.1875 16.5625 8.1875 16.5625C8.125 16.671875 8.296875 17.140625 8.40625 17.25L6.5625 18.0625C6.832031 18.324219 7 18.6875 7 19.09375C7 19.886719 6.355469 20.53125 5.5625 20.53125C4.769531 20.53125 4.125 19.886719 4.125 19.09375C4.125 18.894531 4.175781 18.703125 4.25 18.53125C3.765625 18.351563 3.40625 17.890625 3.40625 17.34375C3.40625 16.640625 3.984375 16.0625 4.6875 16.0625C5.140625 16.0625 5.492188 16.300781 5.71875 16.65625 Z M 18.6875 16L20.28125 16.65625C20.507813 16.300781 20.859375 16.0625 21.3125 16.0625C22.015625 16.0625 22.59375 16.640625 22.59375 17.34375C22.59375 17.890625 22.234375 18.351563 21.75 18.53125C21.824219 18.707031 21.875 18.894531 21.875 19.09375C21.875 19.886719 21.230469 20.53125 20.4375 20.53125C19.644531 20.53125 19 19.886719 19 19.09375C19 18.6875 19.167969 18.324219 19.4375 18.0625L17.59375 17.25C17.703125 17.140625 17.875 16.671875 17.8125 16.5625C17.8125 16.5625 18.34375 16.476563 18.6875 16Z"/></svg>