<svg xmlns="http://www.w3.org/2000/svg" viewBox="0 0 32 32"><path d="M16 4C14.894531 4 14 4.894531 14 6C14 6.738281 14.402344 7.371094 15 7.71875L15 8.0625C13.195313 8.289063 11.570313 9.117188 10.34375 10.34375L8.96875 9.28125C8.980469 9.1875 9 9.097656 9 9C9 7.894531 8.105469 7 7 7C5.894531 7 5 7.894531 5 9C5 10.105469 5.894531 11 7 11C7.265625 11 7.519531 10.9375 7.75 10.84375L9.125 11.90625C8.410156 13.105469 8 14.507813 8 16C8 16.09375 7.996094 16.1875 8 16.28125C7.707031 16.109375 7.363281 16 7 16C5.894531 16 5 16.894531 5 18C5 19.105469 5.894531 20 7 20C7.691406 20 8.296875 19.65625 8.65625 19.125C8.925781 19.753906 9.273438 20.371094 9.6875 20.90625L8.5 22.0625C8.339844 22.019531 8.171875 22 8 22C6.894531 22 6 22.894531 6 24C6 25.105469 6.894531 26 8 26C9.105469 26 10 25.105469 10 24C10 23.828125 9.980469 23.660156 9.9375 23.5L11.09375 22.3125C11.832031 22.882813 12.6875 23.304688 13.59375 23.59375C13.230469 23.957031 13 24.449219 13 25C13 26.105469 13.894531 27 15 27C16.105469 27 17 26.105469 17 25C17 24.625 16.898438 24.269531 16.71875 23.96875C17.546875 23.894531 18.324219 23.683594 19.0625 23.375L20.21875 25.125C20.089844 25.390625 20 25.683594 20 26C20 27.105469 20.894531 28 22 28C23.105469 28 24 27.105469 24 26C24 24.894531 23.105469 24 22 24C21.957031 24 21.917969 23.996094 21.875 24L20.78125 22.375C21.683594 21.699219 22.449219 20.867188 23 19.875L24.03125 20.28125C24.167969 21.253906 24.992188 22 26 22C27.105469 22 28 21.105469 28 20C28 18.894531 27.105469 18 26 18C25.539063 18 25.121094 18.171875 24.78125 18.4375L23.71875 18C23.824219 17.589844 23.929688 17.179688 23.96875 16.75C24.585938 16.410156 25 15.753906 25 15C25 14.03125 24.316406 13.21875 23.40625 13.03125C23.222656 12.574219 22.980469 12.128906 22.71875 11.71875L23.5 10.9375C23.660156 10.980469 23.828125 11 24 11C25.105469 11 26 10.105469 26 9C26 7.894531 25.105469 7 24 7C22.894531 7 22 7.894531 22 9C22 9.171875 22.019531 9.339844 22.0625 9.5L21.4375 10.125C20.242188 9.019531 18.691406 8.277344 17 8.0625L17 7.71875C17.597656 7.371094 18 6.738281 18 6C18 4.894531 17.105469 4 16 4 Z M 16 10C19.324219 10 22 12.675781 22 16C22 19.324219 19.324219 22 16 22C12.675781 22 10 19.324219 10 16C10 12.675781 12.675781 10 16 10 Z M 14 13C13.449219 13 13 13.449219 13 14C13 14.550781 13.449219 15 14 15C14.550781 15 15 14.550781 15 14C15 13.449219 14.550781 13 14 13 Z M 19 15C17.894531 15 17 15.894531 17 17C17 18.105469 17.894531 19 19 19C20.105469 19 21 18.105469 21 17C21 15.894531 20.105469 15 19 15 Z M 15 18C14.449219 18 14 18.449219 14 19C14 19.550781 14.449219 20 15 20C15.550781 20 16 19.550781 16 19C16 18.449219 15.550781 18 15 18Z"/></svg>